<svg xmlns="http://www.w3.org/2000/svg" viewBox="0 0 983 1002" width="128" height="128">
  <path fill="#00BCE4" d="M491.5 20C228 20 20 228 20 491.5S228 963 491.5 963 963 755 963 491.5 755 20 491.5 20zm0 903C290.3 923 60 692.7 60 491.5S290.3 60 491.5 60 923 290.3 923 491.5 692.7 923 491.5 923z"/>
  <path fill="#00BCE4" d="M491.5 180c-172 0-311.5 139.5-311.5 311.5S319.5 803 491.5 803 803 663.5 803 491.5 663.5 180 491.5 180zm0 583c-150 0-271.5-121.5-271.5-271.5S341.5 220 491.5 220 763 341.5 763 491.5 641.5 763 491.5 763z"/>
  <text x="491.5" y="530" font-family="Inter, sans-serif" font-size="320" font-weight="700" text-anchor="middle" fill="#00BCE4">P</text>
</svg>
